<svg width="24" height="28" viewBox="0 0 24 28" fill="none" xmlns="http://www.w3.org/2000/svg">
    <path
        d="M12.0032 13.65C12.6778 13.65 13.2542 13.4098 13.7325 12.9294C14.2109 12.449 14.45 11.8715 14.45 11.1969C14.45 10.5223 14.2098 9.94583 13.7294 9.4675C13.249 8.98917 12.6715 8.75 11.9969 8.75C11.3223 8.75 10.7459 8.9902 10.2675 9.47061C9.7892 9.951 9.55 10.5285 9.55 11.2031C9.55 11.8777 9.7903 12.4542 10.2707 12.9325C10.7511 13.4108 11.3286 13.65 12.0032 13.65ZM12 25.235C15.1034 22.4117 17.3959 19.8508 18.8775 17.5525C20.3592 15.2542 21.1 13.23 21.1 11.48C21.1 8.73157 20.2216 6.48112 18.4648 4.72867C16.708 2.97622 14.5531 2.1 12 2.1C9.447 2.1 7.29206 2.97622 5.53527 4.72867C3.77846 6.48112 2.90005 8.73157 2.90005 11.48C2.90005 13.23 3.65838 15.2542 5.17505 17.5525C6.69172 19.8508 8.9667 22.4117 12 25.235ZM12 28C8.2434 24.8033 5.43755 21.8342 3.58255 19.0925C1.72755 16.3508 0.800049 13.8133 0.800049 11.48C0.800049 7.98 1.92588 5.19167 4.17755 3.115C6.42922 1.03833 9.0367 0 12 0C14.9634 0 17.5709 1.03833 19.8225 3.115C22.0742 5.19167 23.2 7.98 23.2 11.48C23.2 13.8133 22.2725 16.3508 20.4175 19.0925C18.5625 21.8342 15.7567 24.8033 12 28Z"
        fill="#9FB2B2" />
</svg>
    