<svg width="20" height="19" viewBox="0 0 20 19" fill="none" xmlns="http://www.w3.org/2000/svg">
    <path
        d="M10 4.75H11.5M10 7.75H11.5M4 10.75H11.5M4 13.75H11.5M14.5 4.75H17.875C18.496 4.75 19 5.254 19 5.875V15.25C19 15.8467 18.7629 16.419 18.341 16.841C17.919 17.2629 17.3467 17.5 16.75 17.5M14.5 4.75V15.25C14.5 15.8467 14.7371 16.419 15.159 16.841C15.581 17.2629 16.1533 17.5 16.75 17.5M14.5 4.75V2.125C14.5 1.504 13.996 1 13.375 1H2.125C1.504 1 1 1.504 1 2.125V15.25C1 15.8467 1.23705 16.419 1.65901 16.841C2.08097 17.2629 2.65326 17.5 3.25 17.5H16.75M4 4.75H7V7.75H4V4.75Z"
        stroke="#9FB2B2" stroke-width="1.5" stroke-linecap="round" stroke-linejoin="round" />
</svg>
    