<svg width="1342" height="187" viewBox="0 0 1342 187" fill="none" xmlns="http://www.w3.org/2000/svg">
    <path
        d="M4.76837e-07 138C0.933334 138 1.86667 137.067 2.8 135.2C3.73333 133.333 4.2 130.267 4.2 126V30C4.2 25.7333 3.73333 22.7333 2.8 21C1.86667 19.1333 0.933334 18.1333 4.76837e-07 18H30.8C29.8667 18 28.9333 18.9333 28 20.8C27.0667 22.6667 26.6 25.8 26.6 30.2V62.8C26.6 65.7333 26.9333 67.4667 27.6 68C28.4 68.5333 30.8 68.8 34.8 68.8H94.6C98.6 68.8 100.933 68.6 101.6 68.2C102.267 67.6667 102.6 65.8667 102.6 62.8V30C102.6 25.7333 102.133 22.7333 101.2 21C100.267 19.1333 99.3333 18.1333 98.4 18H129.2C128.267 18 127.333 18.9333 126.4 20.8C125.467 22.6667 125 25.8 125 30.2V126C125 130.267 125.467 133.333 126.4 135.2C127.333 137.067 128.267 138 129.2 138H98.4C99.3333 138 100.267 137.067 101.2 135.2C102.133 133.333 102.6 130.267 102.6 126V90.8C102.6 87.7333 102.2 86 101.4 85.6C100.733 85.0667 98.4667 84.8 94.6 84.8H34.8C30.8 84.8 28.4 85.0667 27.6 85.6C26.9333 86.1333 26.6 87.8667 26.6 90.8V126C26.6 130.267 27.0667 133.333 28 135.2C28.9333 137.067 29.8667 138 30.8 138H4.76837e-07ZM188.525 140C173.992 140 163.792 137.4 157.925 132.2C152.058 126.867 149.125 119.733 149.125 110.8C149.125 104.533 150.658 99.2 153.725 94.8C156.925 90.2667 161.658 86.8 167.925 84.4C174.325 82 182.392 80.8 192.125 80.8C199.058 80.8 205.058 81.3333 210.125 82.4C215.325 83.3333 219.525 84.4667 222.725 85.8C226.058 87.1333 228.392 88.2667 229.725 89.2C229.725 81.3333 228.725 75 226.725 70.2C224.858 65.4 221.792 61.9333 217.525 59.8C213.258 57.5333 207.458 56.4 200.125 56.4C192.258 56.4 185.192 57.3333 178.925 59.2C172.792 60.9333 167.858 62.8667 164.125 65C160.392 67 158.058 68.4667 157.125 69.4V65.4L155.125 50.4C156.325 49.8667 158.925 49 162.925 47.8C166.925 46.4667 172.192 45.2667 178.725 44.2C185.258 43 192.925 42.4 201.725 42.4C212.925 42.4 222.058 44 229.125 47.2C236.325 50.2667 241.592 55.0667 244.925 61.6C248.392 68 250.125 76.1333 250.125 86V126C250.125 129.733 250.525 132.467 251.325 134.2C252.258 135.8 253.192 137.067 254.125 138H229.725V132L230.125 128.2L229.725 128C227.592 130 225.058 131.733 222.125 133.2C219.192 134.667 215.992 135.933 212.525 137C209.058 137.933 205.258 138.667 201.125 139.2C197.125 139.733 192.925 140 188.525 140ZM195.125 125.8C202.325 125.8 208.525 125.067 213.725 123.6C218.925 122.133 222.858 120.2 225.525 117.8C228.325 115.267 229.725 112.4 229.725 109.2C229.725 105.2 227.058 101.8 221.725 99C216.525 96.2 208.392 94.8 197.325 94.8C187.058 94.8 179.792 96.1333 175.525 98.8C171.392 101.467 169.325 105.467 169.325 110.8C169.325 116 171.325 119.8 175.325 122.2C179.458 124.6 186.058 125.8 195.125 125.8ZM323.419 140C309.552 140 298.619 137.867 290.619 133.6C282.752 129.333 277.219 123.533 274.019 116.2C270.819 108.867 269.219 100.6 269.219 91.4C269.219 75.1333 273.619 62.9333 282.419 54.8C291.352 46.6667 304.352 42.6 321.419 42.6C331.819 42.6 340.552 43.2667 347.619 44.6C354.685 45.9333 359.552 47.2 362.219 48.4V52.4L366.219 69.8C363.552 67 358.485 64.1333 351.019 61.2C343.552 58.1333 334.152 56.6 322.819 56.6C317.085 56.6 311.619 57.6 306.419 59.6C301.352 61.4667 297.219 64.9333 294.019 70C290.952 75.0667 289.419 82.2667 289.419 91.6C289.419 100.667 291.085 107.733 294.419 112.8C297.752 117.733 302.352 121.133 308.219 123C314.085 124.867 320.752 125.8 328.219 125.8C337.685 125.8 345.485 124.333 351.619 121.4C357.885 118.467 362.085 115.6 364.219 112.8V116.8L366.219 130.4C363.685 132.533 358.685 134.667 351.219 136.8C343.885 138.933 334.619 140 323.419 140ZM383.333 138C384.266 138 385.133 137.067 385.933 135.2C386.866 133.333 387.333 130.267 387.333 126V12C387.333 7.73332 386.866 4.73332 385.933 3C385.133 1.13333 384.266 0.133328 383.333 -1.14441e-05H407.733V77.8C407.733 80.7333 408.066 82.5333 408.733 83.2C409.533 83.7333 411.933 84 415.933 84C420.066 84 423.933 83.0667 427.533 81.2C431.133 79.3333 434.333 76.4 437.133 72.4C440.066 68.2667 442.266 63 443.733 56.6C444.799 52.2 445.199 49.0667 444.933 47.2C444.799 45.3333 444.399 44.4 443.733 44.4H476.333C475.533 44.4 474.199 45.3333 472.333 47.2C470.599 49.0667 468.533 52.2 466.133 56.6C463.066 62.2 460.199 67.0667 457.533 71.2C454.866 75.3333 451.799 78.8667 448.333 81.8C444.866 84.7333 440.466 87.3333 435.133 89.6C441.399 91.7333 446.799 94.5333 451.333 98C455.999 101.333 460.133 105.333 463.733 110C467.466 114.667 471.133 120 474.733 126C477.399 130.267 479.733 133.333 481.733 135.2C483.866 137.067 485.399 138 486.333 138H453.933C454.733 137.867 454.999 136.733 454.733 134.6C454.599 132.467 453.266 128.933 450.733 124C448.466 119.333 445.666 115.067 442.333 111.2C438.999 107.2 435.133 104.067 430.733 101.8C426.466 99.4 421.533 98.2 415.933 98.2C411.799 98.2 409.399 98.4667 408.733 99C408.066 99.4 407.733 101.133 407.733 104.2V126C407.733 130.267 408.133 133.333 408.933 135.2C409.866 137.067 410.799 138 411.733 138H383.333ZM538.611 140C528.078 140 519.411 138.8 512.611 136.4C505.811 133.867 500.478 130.4 496.611 126C492.744 121.6 490.011 116.467 488.411 110.6C486.944 104.733 486.211 98.3333 486.211 91.4C486.211 76.3333 490.478 64.4 499.011 55.6C507.678 46.8 520.478 42.4 537.411 42.4C547.278 42.4 555.211 43.7333 561.211 46.4C567.344 49.0667 571.944 52.6 575.011 57C578.211 61.4 580.344 66.2 581.411 71.4C582.611 76.4667 583.211 81.4667 583.211 86.4V95.8C583.211 95.4 581.344 95 577.611 94.6C574.011 94.0667 567.878 93.8 559.211 93.8H506.611C506.611 103.667 509.544 111.467 515.411 117.2C521.278 122.933 530.011 125.8 541.611 125.8C551.611 125.8 559.811 124.6 566.211 122.2C572.744 119.667 577.078 117.2 579.211 114.8V118.8L581.211 132C578.278 133.733 573.078 135.533 565.611 137.4C558.278 139.133 549.278 140 538.611 140ZM514.611 80.6H563.211C563.211 77.1333 562.478 73.5333 561.011 69.8C559.544 66.0667 556.944 62.9333 553.211 60.4C549.478 57.7333 544.211 56.4 537.411 56.4C531.678 56.4 526.678 57.4 522.411 59.4C518.144 61.2667 514.811 63.7333 512.411 66.8C510.144 69.8667 509.011 73.1333 509.011 76.6C509.011 77.9333 509.411 78.9333 510.211 79.6C511.011 80.2667 512.478 80.6 514.611 80.6ZM600.325 138C601.258 138 602.125 137.067 602.925 135.2C603.858 133.333 604.325 130.267 604.325 126V58.4C604.325 54.1333 603.858 51.1333 602.925 49.4C602.125 47.5333 601.258 46.5333 600.325 46.4C606.192 46.4 611.258 46 615.525 45.2C619.925 44.2667 622.992 43.3333 624.725 42.4V52.4L624.325 55.8L624.725 56.2C626.725 53.5333 629.125 51.2 631.925 49.2C634.858 47.0667 638.192 45.4 641.925 44.2C645.658 43 649.925 42.4 654.725 42.4C660.992 42.4 666.392 43.3333 670.925 45.2C675.592 46.9333 678.925 48.7333 680.925 50.6L676.925 67.4V73.4C675.192 71.2667 672.658 69.0667 669.325 66.8C666.125 64.4 662.458 62.4 658.325 60.8C654.192 59.2 649.792 58.4 645.125 58.4C639.792 58.4 635.058 60.5333 630.925 64.8C626.792 69.0667 624.725 76.1333 624.725 86V126C624.725 130.267 625.125 133.333 625.925 135.2C626.858 137.067 627.792 138 628.725 138H600.325ZM745.875 140C733.342 140 722.808 139.333 714.275 138C705.875 136.667 700.142 135.333 697.075 134V130L692.875 112.8C696.342 115.6 702.408 118.533 711.075 121.6C719.875 124.533 730.542 126 743.075 126C751.342 126 757.542 125.467 761.675 124.4C765.808 123.2 768.542 121.667 769.875 119.8C771.208 117.8 771.875 115.6 771.875 113.2C771.875 110.4 770.875 108.2 768.875 106.6C767.008 104.867 763.408 103.467 758.075 102.4C752.875 101.2 745.142 100 734.875 98.8C723.675 97.4667 715.008 95.5333 708.875 93C702.875 90.4667 698.742 87.2667 696.475 83.4C694.208 79.4 693.075 74.6667 693.075 69.2C693.075 64.9333 694.208 60.7333 696.475 56.6C698.742 52.4667 702.942 49.0667 709.075 46.4C715.342 43.7333 724.208 42.4 735.675 42.4C748.075 42.4 758.475 43.0667 766.875 44.4C775.408 45.7333 781.208 47.0667 784.275 48.4V52.4L788.275 67.6C784.942 65.2 778.875 62.7333 770.075 60.2C761.275 57.6667 750.675 56.4 738.275 56.4C728.408 56.4 721.808 57.5333 718.475 59.8C715.142 61.9333 713.475 64.7333 713.475 68.2C713.475 70.2 713.875 72 714.675 73.6C715.475 75.0667 717.075 76.4 719.475 77.6C722.008 78.8 725.742 79.8667 730.675 80.8C735.742 81.7333 742.475 82.6667 750.875 83.6C762.208 84.8 770.808 86.6667 776.675 89.2C782.542 91.7333 786.542 94.9333 788.675 98.8C790.942 102.533 792.075 106.933 792.075 112C792.075 117.467 790.542 122.333 787.475 126.6C784.542 130.733 779.675 134 772.875 136.4C766.075 138.8 757.075 140 745.875 140ZM810.938 138C811.871 138 812.804 137.067 813.738 135.2C814.671 133.333 815.138 130.267 815.138 126V30C815.138 25.7333 814.671 22.7333 813.738 21C812.804 19.1333 811.871 18.1333 810.938 18H847.938C847.671 18 847.804 18.9333 848.338 20.8C848.871 22.6667 850.138 25.8667 852.138 30.4C852.938 32.1333 854.338 35.2 856.338 39.6C858.471 44 861.004 49.2667 863.938 55.4C866.871 61.4 870.004 67.8667 873.338 74.8C876.671 81.7333 880.071 88.8 883.538 96C887.004 103.067 890.271 109.733 893.338 116H893.538C896.738 109.6 900.071 102.867 903.538 95.8C907.004 88.6 910.471 81.4667 913.938 74.4C917.404 67.3333 920.604 60.8 923.538 54.8C926.471 48.6667 928.938 43.4667 930.938 39.2C933.071 34.8 934.538 31.7333 935.338 30C937.204 25.7333 938.404 22.6667 938.938 20.8C939.604 18.9333 939.804 18 939.538 18H976.338C975.404 18 974.471 18.9333 973.538 20.8C972.604 22.6667 972.138 25.8 972.138 30.2V126C972.138 130.267 972.604 133.333 973.538 135.2C974.471 137.067 975.404 138 976.338 138H945.738C946.671 138 947.538 137.067 948.338 135.2C949.271 133.333 949.738 130.267 949.738 126V43.2H949.338C946.538 48.8 943.538 54.8 940.338 61.2C937.271 67.6 934.138 74.0667 930.938 80.6C927.738 87 924.738 93.2 921.938 99.2C919.138 105.067 916.604 110.333 914.338 115C912.204 119.667 910.538 123.333 909.338 126C907.471 130.133 906.471 133.133 906.338 135C906.338 136.867 906.671 137.867 907.338 138H879.338C880.004 138 880.338 137.133 880.338 135.4C880.338 133.533 879.338 130.4 877.338 126C876.404 123.733 874.871 120.4 872.738 116C870.604 111.6 868.138 106.467 865.338 100.6C862.671 94.6 859.738 88.3333 856.538 81.8C853.338 75.1333 850.138 68.4667 846.938 61.8C843.871 55.1333 840.938 48.9333 838.138 43.2H837.538V126C837.538 130.267 838.004 133.333 838.938 135.2C839.871 137.067 840.804 138 841.738 138H810.938ZM1035.79 140C1021.26 140 1011.06 137.4 1005.19 132.2C999.324 126.867 996.391 119.733 996.391 110.8C996.391 104.533 997.924 99.2 1000.99 94.8C1004.19 90.2667 1008.92 86.8 1015.19 84.4C1021.59 82 1029.66 80.8 1039.39 80.8C1046.32 80.8 1052.32 81.3333 1057.39 82.4C1062.59 83.3333 1066.79 84.4667 1069.99 85.8C1073.32 87.1333 1075.66 88.2667 1076.99 89.2C1076.99 81.3333 1075.99 75 1073.99 70.2C1072.12 65.4 1069.06 61.9333 1064.79 59.8C1060.52 57.5333 1054.72 56.4 1047.39 56.4C1039.52 56.4 1032.46 57.3333 1026.19 59.2C1020.06 60.9333 1015.12 62.8667 1011.39 65C1007.66 67 1005.32 68.4667 1004.39 69.4V65.4L1002.39 50.4C1003.59 49.8667 1006.19 49 1010.19 47.8C1014.19 46.4667 1019.46 45.2667 1025.99 44.2C1032.52 43 1040.19 42.4 1048.99 42.4C1060.19 42.4 1069.32 44 1076.39 47.2C1083.59 50.2667 1088.86 55.0667 1092.19 61.6C1095.66 68 1097.39 76.1333 1097.39 86V126C1097.39 129.733 1097.79 132.467 1098.59 134.2C1099.52 135.8 1100.46 137.067 1101.39 138H1076.99V132L1077.39 128.2L1076.99 128C1074.86 130 1072.32 131.733 1069.39 133.2C1066.46 134.667 1063.26 135.933 1059.79 137C1056.32 137.933 1052.52 138.667 1048.39 139.2C1044.39 139.733 1040.19 140 1035.79 140ZM1042.39 125.8C1049.59 125.8 1055.79 125.067 1060.99 123.6C1066.19 122.133 1070.12 120.2 1072.79 117.8C1075.59 115.267 1076.99 112.4 1076.99 109.2C1076.99 105.2 1074.32 101.8 1068.99 99C1063.79 96.2 1055.66 94.8 1044.59 94.8C1034.32 94.8 1027.06 96.1333 1022.79 98.8C1018.66 101.467 1016.59 105.467 1016.59 110.8C1016.59 116 1018.59 119.8 1022.59 122.2C1026.72 124.6 1033.32 125.8 1042.39 125.8ZM1118.68 138C1119.62 138 1120.48 137.067 1121.28 135.2C1122.22 133.333 1122.68 130.267 1122.68 126V58.4C1122.68 54.1333 1122.22 51.1333 1121.28 49.4C1120.48 47.5333 1119.62 46.5333 1118.68 46.4C1124.55 46.4 1129.62 46 1133.88 45.2C1138.28 44.2667 1141.35 43.3333 1143.08 42.4V54.6L1142.68 57.2L1143.08 57.6C1145.08 55.0667 1147.62 52.6667 1150.68 50.4C1153.88 48.1333 1157.82 46.2667 1162.48 44.8C1167.15 43.2 1172.62 42.4 1178.88 42.4C1191.28 42.4 1200.75 45.9333 1207.28 53C1213.95 60.0667 1217.28 71.1333 1217.28 86.2V126C1217.28 130.267 1217.68 133.333 1218.48 135.2C1219.42 137.067 1220.35 138 1221.28 138H1192.88C1193.82 138 1194.68 137.067 1195.48 135.2C1196.42 133.333 1196.88 130.267 1196.88 126V86.8C1196.88 78.9333 1195.88 72.8 1193.88 68.4C1191.88 64 1189.08 60.9333 1185.48 59.2C1182.02 57.3333 1177.95 56.4 1173.28 56.4C1168.35 56.4 1163.55 57.4667 1158.88 59.6C1154.22 61.7333 1150.42 65.1333 1147.48 69.8C1144.55 74.4667 1143.08 80.7333 1143.08 88.6V126C1143.08 130.267 1143.48 133.333 1144.28 135.2C1145.22 137.067 1146.15 138 1147.08 138H1118.68ZM1287.21 186.8C1279.48 186.8 1272.34 186.267 1265.81 185.2C1259.41 184.133 1253.81 182.8 1249.01 181.2C1244.34 179.733 1240.74 178.267 1238.21 176.8L1242.21 158.8V153C1244.08 155.8 1247.01 158.733 1251.01 161.8C1255.01 164.867 1260.01 167.467 1266.01 169.6C1272.01 171.733 1278.81 172.8 1286.41 172.8C1295.34 172.8 1301.94 171.333 1306.21 168.4C1310.61 165.467 1313.48 161.4 1314.81 156.2C1316.28 151 1317.01 145.067 1317.01 138.4V131L1317.41 127.4L1317.01 127C1315.28 129.267 1312.88 131.4 1309.81 133.4C1306.74 135.4 1303.08 137 1298.81 138.2C1294.54 139.4 1289.74 140 1284.41 140C1271.74 140 1261.88 137.867 1254.81 133.6C1247.88 129.333 1243.01 123.533 1240.21 116.2C1237.54 108.867 1236.21 100.6 1236.21 91.4C1236.21 82.0667 1237.54 73.7333 1240.21 66.4C1243.01 59.0667 1247.88 53.2667 1254.81 49C1261.88 44.6 1271.74 42.4 1284.41 42.4C1289.74 42.4 1294.48 42.9333 1298.61 44C1302.74 44.9333 1306.34 46.2667 1309.41 48C1312.48 49.6 1315.01 51.5333 1317.01 53.8L1317.41 53.6L1317.01 49.8V44.4H1341.41C1340.48 44.5333 1339.54 45.5333 1338.61 47.4C1337.81 49.2667 1337.41 52.4 1337.41 56.8V133.4C1337.41 152.733 1333.28 166.467 1325.01 174.6C1316.88 182.733 1304.28 186.8 1287.21 186.8ZM1285.81 125.8C1294.08 125.8 1300.48 124.533 1305.01 122C1309.54 119.333 1312.68 115.467 1314.41 110.4C1316.14 105.2 1317.01 98.8667 1317.01 91.4C1317.01 84.0667 1316.08 77.8 1314.21 72.6C1312.48 67.4 1309.34 63.4 1304.81 60.6C1300.41 57.8 1294.08 56.4 1285.81 56.4C1278.34 56.4 1272.48 57.8667 1268.21 60.8C1263.94 63.6 1260.88 67.6667 1259.01 73C1257.28 78.2 1256.41 84.4 1256.41 91.6C1256.41 98.6667 1257.28 104.8 1259.01 110C1260.74 115.067 1263.74 119 1268.01 121.8C1272.41 124.467 1278.34 125.8 1285.81 125.8Z"
        fill="white" />
</svg>
    