<svg width="623" height="64" viewBox="0 0 623 64" fill="none" xmlns="http://www.w3.org/2000/svg">
    <path
        d="M16.4093 63H0.351074L21.2087 1.18182H41.1004L61.958 63H45.8997L31.3809 16.7571H30.8979L16.4093 63ZM14.2662 38.6712H47.8315V50.0206H14.2662V38.6712ZM83.5551 1.18182V63H68.6137V1.18182H83.5551ZM109.174 13.316V1.18182H161.424V13.316H142.679V63H127.949V13.316H109.174ZM168.721 63V1.18182H211.825V13.316H183.663V25.9936H209.621V38.158H183.663V50.8658H211.825V63H168.721ZM277.295 23.5788H262.203C262.002 22.0294 261.589 20.6308 260.965 19.3832C260.342 18.1355 259.517 17.069 258.49 16.1836C257.464 15.2982 256.247 14.6241 254.838 14.1612C253.449 13.6783 251.91 13.4368 250.22 13.4368C247.221 13.4368 244.636 14.1713 242.462 15.6403C240.309 17.1093 238.649 19.2322 237.482 22.0092C236.335 24.7862 235.761 28.1468 235.761 32.0909C235.761 36.196 236.345 39.6371 237.512 42.4141C238.699 45.1709 240.359 47.2537 242.492 48.6623C244.646 50.0508 247.191 50.745 250.129 50.745C251.779 50.745 253.278 50.5337 254.627 50.1111C255.995 49.6886 257.192 49.0748 258.219 48.2699C259.265 47.4448 260.12 46.4487 260.784 45.2816C261.468 44.0943 261.941 42.7562 262.203 41.267L277.295 41.3576C277.034 44.0943 276.239 46.7908 274.911 49.4471C273.603 52.1033 271.802 54.5282 269.508 56.7216C267.214 58.8949 264.417 60.6255 261.116 61.9134C257.836 63.2012 254.073 63.8452 249.827 63.8452C244.233 63.8452 239.222 62.6177 234.795 60.1626C230.388 57.6875 226.907 54.0855 224.351 49.3565C221.796 44.6276 220.518 38.8724 220.518 32.0909C220.518 25.2893 221.816 19.524 224.412 14.7951C227.008 10.0662 230.519 6.47419 234.946 4.01917C239.373 1.56416 244.334 0.336645 249.827 0.336645C253.57 0.336645 257.031 0.859847 260.211 1.90625C263.39 2.93253 266.187 4.44176 268.602 6.43395C271.017 8.40601 272.979 10.8308 274.488 13.7085C275.997 16.5861 276.933 19.8762 277.295 23.5788ZM285.845 63V1.18182H300.787V25.9936H325.146V1.18182H340.057V63H325.146V38.158H300.787V63H285.845Z"
        fill="#9FB2B2" />
    <path
        d="M363.465 1.18182L377.29 46.4588H377.803L391.627 1.18182H408.35L387.492 63H367.6L346.743 1.18182H363.465ZM415.005 63V1.18182H458.109V13.316H429.947V25.9936H455.905V38.158H429.947V50.8658H458.109V63H415.005ZM467.466 63V1.18182H493.002C497.631 1.18182 501.625 2.01693 504.986 3.68714C508.366 5.33724 510.972 7.71176 512.804 10.8107C514.635 13.8896 515.55 17.5419 515.55 21.7678C515.55 26.054 514.615 29.6963 512.743 32.6946C510.872 35.6728 508.216 37.9467 504.774 39.5163C501.333 41.0658 497.258 41.8406 492.55 41.8406H476.401V30.0685H489.773C492.026 30.0685 493.908 29.7768 495.417 29.1932C496.947 28.5895 498.104 27.6839 498.888 26.4766C499.673 25.2491 500.066 23.6794 500.066 21.7678C500.066 19.8561 499.673 18.2764 498.888 17.0288C498.104 15.761 496.947 14.8152 495.417 14.1914C493.888 13.5475 492.006 13.2255 489.773 13.2255H482.408V63H467.466ZM502.269 34.7472L517.663 63H501.364L486.271 34.7472H502.269ZM557.16 19.7152C556.959 17.5017 556.063 15.7811 554.474 14.5536C552.904 13.306 550.66 12.6822 547.742 12.6822C545.811 12.6822 544.201 12.9337 542.913 13.4368C541.625 13.9399 540.659 14.6341 540.015 15.5195C539.371 16.3848 539.039 17.3809 539.019 18.5078C538.979 19.4335 539.16 20.2485 539.562 20.9528C539.985 21.6571 540.589 22.2809 541.373 22.8242C542.178 23.3474 543.144 23.8102 544.271 24.2127C545.398 24.6152 546.666 24.9673 548.074 25.2692L553.387 26.4766C556.446 27.1406 559.142 28.026 561.476 29.1328C563.831 30.2396 565.803 31.5576 567.393 33.087C569.002 34.6164 570.22 36.3771 571.045 38.3693C571.87 40.3615 572.293 42.5952 572.313 45.0703C572.293 48.9742 571.306 52.3247 569.355 55.1218C567.403 57.9189 564.595 60.062 560.933 61.5511C557.291 63.0402 552.894 63.7848 547.742 63.7848C542.571 63.7848 538.063 63.0101 534.22 61.4606C530.376 59.9111 527.388 57.5567 525.255 54.3974C523.122 51.238 522.025 47.2436 521.965 42.4141H536.272C536.393 44.4062 536.926 46.0664 537.872 47.3945C538.818 48.7227 540.116 49.7288 541.766 50.413C543.436 51.0972 545.368 51.4393 547.561 51.4393C549.574 51.4393 551.284 51.1676 552.693 50.6243C554.121 50.081 555.218 49.3263 555.983 48.3604C556.747 47.3945 557.14 46.2878 557.16 45.0401C557.14 43.873 556.778 42.8769 556.073 42.0518C555.369 41.2067 554.282 40.4822 552.813 39.8785C551.364 39.2547 549.513 38.6812 547.259 38.158L540.8 36.6488C535.447 35.4213 531.231 33.4392 528.152 30.7024C525.074 27.9455 523.544 24.2228 523.564 19.5341C523.544 15.7107 524.571 12.3602 526.643 9.4826C528.716 6.60499 531.583 4.36127 535.246 2.75142C538.908 1.14157 543.084 0.336645 547.773 0.336645C552.562 0.336645 556.717 1.15163 560.239 2.7816C563.78 4.39145 566.527 6.6553 568.479 9.57315C570.431 12.491 571.427 15.8717 571.467 19.7152H557.16ZM579.859 63V1.18182H622.962V13.316H594.8V25.9936H620.759V38.158H594.8V50.8658H622.962V63H579.859Z"
        fill="#D4E20B" />
</svg>
    